<svg height="1950" width="720" xmlns="http://www.w3.org/2000/svg">
<rect height="1950" fill="#555" width="720"></rect>
<text fill="#7f7" font-family="Courier New" font-size="12" xml:space="preserve">
<tspan x="10" y="26">22 megabytes installed</tspan>
<tspan x="10" y="42"></tspan>
<tspan x="10" y="58">node_modules</tspan>
<tspan x="10" y="74">└─┬ snappy@6.0.0 </tspan>
<tspan x="10" y="90">  ├── bindings@1.2.1 </tspan>
<tspan x="10" y="106">  ├── nan@2.4.0 </tspan>
<tspan x="10" y="122">  └─┬ node-gyp@3.4.0 </tspan>
<tspan x="10" y="138">    ├─┬ fstream@1.0.11 </tspan>
<tspan x="10" y="154">    │ └── inherits@2.0.3 </tspan>
<tspan x="10" y="170">    ├─┬ glob@7.1.1 </tspan>
<tspan x="10" y="186">    │ ├── fs.realpath@1.0.0 </tspan>
<tspan x="10" y="202">    │ ├─┬ inflight@1.0.6 </tspan>
<tspan x="10" y="218">    │ │ └── wrappy@1.0.2 </tspan>
<tspan x="10" y="234">    │ ├── once@1.4.0 </tspan>
<tspan x="10" y="250">    │ └── path-is-absolute@1.0.1 </tspan>
<tspan x="10" y="266">    ├── graceful-fs@4.1.11 </tspan>
<tspan x="10" y="282">    ├─┬ minimatch@3.0.3 </tspan>
<tspan x="10" y="298">    │ └─┬ brace-expansion@1.1.7 </tspan>
<tspan x="10" y="314">    │   ├── balanced-match@0.4.2 </tspan>
<tspan x="10" y="330">    │   └── concat-map@0.0.1 </tspan>
<tspan x="10" y="346">    ├─┬ mkdirp@0.5.1 </tspan>
<tspan x="10" y="362">    │ └── minimist@0.0.8 </tspan>
<tspan x="10" y="378">    ├─┬ nopt@3.0.6 </tspan>
<tspan x="10" y="394">    │ └── abbrev@1.1.0 </tspan>
<tspan x="10" y="410">    ├─┬ npmlog@3.1.2 </tspan>
<tspan x="10" y="426">    │ ├─┬ are-we-there-yet@1.1.4 </tspan>
<tspan x="10" y="442">    │ │ ├── delegates@1.0.0 </tspan>
<tspan x="10" y="458">    │ │ └─┬ readable-stream@2.2.9 </tspan>
<tspan x="10" y="474">    │ │   ├── buffer-shims@1.0.0 </tspan>
<tspan x="10" y="490">    │ │   ├── core-util-is@1.0.2 </tspan>
<tspan x="10" y="506">    │ │   ├── isarray@1.0.0 </tspan>
<tspan x="10" y="522">    │ │   ├── process-nextick-args@1.0.7 </tspan>
<tspan x="10" y="538">    │ │   ├── string_decoder@1.0.0 </tspan>
<tspan x="10" y="554">    │ │   └── util-deprecate@1.0.2 </tspan>
<tspan x="10" y="570">    │ ├── console-control-strings@1.1.0 </tspan>
<tspan x="10" y="586">    │ ├─┬ gauge@2.6.0 </tspan>
<tspan x="10" y="602">    │ │ ├── aproba@1.1.1 </tspan>
<tspan x="10" y="618">    │ │ ├── has-color@0.1.7 </tspan>
<tspan x="10" y="634">    │ │ ├── has-unicode@2.0.1 </tspan>
<tspan x="10" y="650">    │ │ ├── object-assign@4.1.1 </tspan>
<tspan x="10" y="666">    │ │ ├── signal-exit@3.0.2 </tspan>
<tspan x="10" y="682">    │ │ ├─┬ string-width@1.0.2 </tspan>
<tspan x="10" y="698">    │ │ │ ├── code-point-at@1.1.0 </tspan>
<tspan x="10" y="714">    │ │ │ └─┬ is-fullwidth-code-point@1.0.0 </tspan>
<tspan x="10" y="730">    │ │ │   └── number-is-nan@1.0.1 </tspan>
<tspan x="10" y="746">    │ │ ├─┬ strip-ansi@3.0.1 </tspan>
<tspan x="10" y="762">    │ │ │ └── ansi-regex@2.1.1 </tspan>
<tspan x="10" y="778">    │ │ └── wide-align@1.1.0 </tspan>
<tspan x="10" y="794">    │ └── set-blocking@2.0.0 </tspan>
<tspan x="10" y="810">    ├─┬ osenv@0.1.4 </tspan>
<tspan x="10" y="826">    │ ├── os-homedir@1.0.2 </tspan>
<tspan x="10" y="842">    │ └── os-tmpdir@1.0.2 </tspan>
<tspan x="10" y="858">    ├─┬ path-array@1.0.1 </tspan>
<tspan x="10" y="874">    │ └─┬ array-index@1.0.0 </tspan>
<tspan x="10" y="890">    │   ├─┬ debug@2.6.4 </tspan>
<tspan x="10" y="906">    │   │ └── ms@0.7.3 </tspan>
<tspan x="10" y="922">    │   └─┬ es6-symbol@3.1.1 </tspan>
<tspan x="10" y="938">    │     ├── d@1.0.0 </tspan>
<tspan x="10" y="954">    │     └─┬ es5-ext@0.10.15 </tspan>
<tspan x="10" y="970">    │       └── es6-iterator@2.0.1 </tspan>
<tspan x="10" y="986">    ├─┬ request@2.81.0 </tspan>
<tspan x="10" y="1002">    │ ├── aws-sign2@0.6.0 </tspan>
<tspan x="10" y="1018">    │ ├── aws4@1.6.0 </tspan>
<tspan x="10" y="1034">    │ ├── caseless@0.12.0 </tspan>
<tspan x="10" y="1050">    │ ├─┬ combined-stream@1.0.5 </tspan>
<tspan x="10" y="1066">    │ │ └── delayed-stream@1.0.0 </tspan>
<tspan x="10" y="1082">    │ ├── extend@3.0.0 </tspan>
<tspan x="10" y="1098">    │ ├── forever-agent@0.6.1 </tspan>
<tspan x="10" y="1114">    │ ├─┬ form-data@2.1.4 </tspan>
<tspan x="10" y="1130">    │ │ └── asynckit@0.4.0 </tspan>
<tspan x="10" y="1146">    │ ├─┬ har-validator@4.2.1 </tspan>
<tspan x="10" y="1162">    │ │ ├─┬ ajv@4.11.7 </tspan>
<tspan x="10" y="1178">    │ │ │ ├── co@4.6.0 </tspan>
<tspan x="10" y="1194">    │ │ │ └─┬ json-stable-stringify@1.0.1 </tspan>
<tspan x="10" y="1210">    │ │ │   └── jsonify@0.0.0 </tspan>
<tspan x="10" y="1226">    │ │ └── har-schema@1.0.5 </tspan>
<tspan x="10" y="1242">    │ ├─┬ hawk@3.1.3 </tspan>
<tspan x="10" y="1258">    │ │ ├── boom@2.10.1 </tspan>
<tspan x="10" y="1274">    │ │ ├── cryptiles@2.0.5 </tspan>
<tspan x="10" y="1290">    │ │ ├── hoek@2.16.3 </tspan>
<tspan x="10" y="1306">    │ │ └── sntp@1.0.9 </tspan>
<tspan x="10" y="1322">    │ ├─┬ http-signature@1.1.1 </tspan>
<tspan x="10" y="1338">    │ │ ├── assert-plus@0.2.0 </tspan>
<tspan x="10" y="1354">    │ │ ├─┬ jsprim@1.4.0 </tspan>
<tspan x="10" y="1370">    │ │ │ ├── assert-plus@1.0.0 </tspan>
<tspan x="10" y="1386">    │ │ │ ├── extsprintf@1.0.2 </tspan>
<tspan x="10" y="1402">    │ │ │ ├── json-schema@0.2.3 </tspan>
<tspan x="10" y="1418">    │ │ │ └── verror@1.3.6 </tspan>
<tspan x="10" y="1434">    │ │ └─┬ sshpk@1.13.0 </tspan>
<tspan x="10" y="1450">    │ │   ├── asn1@0.2.3 </tspan>
<tspan x="10" y="1466">    │ │   ├── assert-plus@1.0.0 </tspan>
<tspan x="10" y="1482">    │ │   ├── bcrypt-pbkdf@1.0.1 </tspan>
<tspan x="10" y="1498">    │ │   ├─┬ dashdash@1.14.1 </tspan>
<tspan x="10" y="1514">    │ │   │ └── assert-plus@1.0.0 </tspan>
<tspan x="10" y="1530">    │ │   ├── ecc-jsbn@0.1.1 </tspan>
<tspan x="10" y="1546">    │ │   ├─┬ getpass@0.1.6 </tspan>
<tspan x="10" y="1562">    │ │   │ └── assert-plus@1.0.0 </tspan>
<tspan x="10" y="1578">    │ │   ├── jodid25519@1.0.2 </tspan>
<tspan x="10" y="1594">    │ │   ├── jsbn@0.1.1 </tspan>
<tspan x="10" y="1610">    │ │   └── tweetnacl@0.14.5 </tspan>
<tspan x="10" y="1626">    │ ├── is-typedarray@1.0.0 </tspan>
<tspan x="10" y="1642">    │ ├── isstream@0.1.2 </tspan>
<tspan x="10" y="1658">    │ ├── json-stringify-safe@5.0.1 </tspan>
<tspan x="10" y="1674">    │ ├─┬ mime-types@2.1.15 </tspan>
<tspan x="10" y="1690">    │ │ └── mime-db@1.27.0 </tspan>
<tspan x="10" y="1706">    │ ├── oauth-sign@0.8.2 </tspan>
<tspan x="10" y="1722">    │ ├── performance-now@0.2.0 </tspan>
<tspan x="10" y="1738">    │ ├── qs@6.4.0 </tspan>
<tspan x="10" y="1754">    │ ├── safe-buffer@5.0.1 </tspan>
<tspan x="10" y="1770">    │ ├── stringstream@0.0.5 </tspan>
<tspan x="10" y="1786">    │ ├─┬ tough-cookie@2.3.2 </tspan>
<tspan x="10" y="1802">    │ │ └── punycode@1.4.1 </tspan>
<tspan x="10" y="1818">    │ ├── tunnel-agent@0.6.0 </tspan>
<tspan x="10" y="1834">    │ └── uuid@3.0.1 </tspan>
<tspan x="10" y="1850">    ├── rimraf@2.6.1 </tspan>
<tspan x="10" y="1866">    ├── semver@5.3.0 </tspan>
<tspan x="10" y="1882">    ├─┬ tar@2.2.1 </tspan>
<tspan x="10" y="1898">    │ └── block-stream@0.0.9 </tspan>
<tspan x="10" y="1914">    └─┬ which@1.2.14 </tspan>
<tspan x="10" y="1930">      └── isexe@2.0.0</tspan>
</text>
</svg>
